<svg width="485.525px" height="276.8px" xmlns="http://www.w3.org/2000/svg" viewBox="7.237500000000011 -63.400000000000006 485.525 276.8" style="background: rgba(0, 0, 0, 0);" preserveAspectRatio="xMidYMid"><defs><linearGradient id="editing-sticker-gradient" x1="0.5" y1="0.2" x2="0.5" y2="0.8"><stop offset="0" stop-color="#fd9"></stop><stop offset="1" stop-color="#9df"></stop></linearGradient><filter id="editing-sticker" x="-100%" y="-100%" width="300%" height="300%"><feMorphology operator="erode" radius="1" in="SourceAlpha" result="alpha-erode"></feMorphology><feConvolveMatrix order="3,3" divisor="1" kernelMatrix="0 1 0 1 1 1 0 1 0" in="alpha-erode" result="alpha-round"></feConvolveMatrix><feMorphology operator="dilate" radius="3.5" in="alpha-round" result="dilate-shadow"></feMorphology><feGaussianBlur in="dilate-shadow" stdDeviation="1.5" result="shadow"></feGaussianBlur><feFlood flood-color="#fff" result="flood-sticker"></feFlood><feComposite operator="in" in="flood-sticker" in2="alpha-round" result="comp-sticker"></feComposite><feMorphology operator="dilate" radius="3" in="comp-sticker" result="morph-sticker"></feMorphology><feConvolveMatrix order="3,3" divisor="1" kernelMatrix="0 1 0 1 1 1 0 1 0" in="morph-sticker" result="sticker"></feConvolveMatrix><feMerge><feMergeNode in="shadow"></feMergeNode><feMergeNode in="sticker"></feMergeNode><feMergeNode in="SourceGraphic"></feMergeNode></feMerge></filter></defs><g filter="url(#editing-sticker)"><g transform="translate(79.82997590303421, 123.16000175476074)"><path d="M116.76 0L82.74 0L70.28-58.66L69.72-58.66L57.26 0L23.24 0L0.70-96.32L32.90-96.32L43.96-41.72L44.52-41.72L55.44-96.32L85.96-96.32L97.58-41.72L98.14-41.72L108.50-96.32L139.30-96.32L116.76 0ZM241.78-66.78L241.78-66.78Q241.78-57.96 237.02-50.82L237.02-50.82L237.02-50.82Q232.26-43.68 223.16-40.32L223.16-40.32L244.58 0L209.86 0L192.78-35.14L181.30-35.14L181.30 0L150.36 0L150.36-96.32L209.30-96.32L209.30-96.32Q219.66-96.32 227.01-92.33L227.01-92.33L227.01-92.33Q234.36-88.34 238.07-81.55L238.07-81.55L238.07-81.55Q241.78-74.76 241.78-66.78L241.78-66.78ZM210.28-65.52L210.28-65.52Q210.28-69.30 207.76-71.82L207.76-71.82L207.76-71.82Q205.24-74.34 201.60-74.34L201.60-74.34L181.30-74.34L181.30-56.56L201.60-56.56L201.60-56.56Q205.24-56.56 207.76-59.15L207.76-59.15L207.76-59.15Q210.28-61.74 210.28-65.52L210.28-65.52ZM259.28 0L259.28-96.32L290.22-96.32L290.22-24.64L339.64-24.64L339.64 0L259.28 0Z" fill="url(#editing-sticker-gradient)" stroke="#000" stroke-width="2.5"></path></g></g><style>text {
  font-size: 64px;
  font-family: Arial Black;
  dominant-baseline: central;
  text-anchor: middle;
}</style></svg>